<svg width="15" height="15" viewBox="0 0 15 15" fill="none" xmlns="http://www.w3.org/2000/svg">
<path d="M14.1667 0C13.7065 0 13.3333 0.419824 13.3333 0.911133V14.0625C13.3333 14.5811 13.7057 15 14.1667 15C14.6276 15 15 14.5802 15 14.0889V0.911133C15 0.419824 14.6276 0 14.1667 0ZM4.16667 8.4375C3.70573 8.4375 3.33333 8.85645 3.33333 9.34863V14.0361C3.33333 14.5811 3.70573 15 4.16667 15C4.6276 15 5 14.5802 5 14.0889V9.34863C5 8.85645 4.6276 8.4375 4.16667 8.4375ZM0.833333 11.25C0.373177 11.25 0 11.6689 0 12.1611V14.0361C0 14.5811 0.373177 15 0.809896 15C1.24661 15 1.66667 14.5811 1.66667 14.0625V12.1611C1.66667 11.6689 1.29349 11.25 0.833333 11.25ZM10.8333 2.8125C10.3732 2.8125 10 3.23232 10 3.72363V14.0625C10 14.5811 10.3724 15 10.8333 15C11.2943 15 11.6667 14.5802 11.6667 14.0889V3.72363C11.6667 3.23145 11.2943 2.8125 10.8333 2.8125ZM7.5 5.625C7.03906 5.625 6.66667 6.04395 6.66667 6.53613V14.0361C6.66667 14.5811 7.03906 15 7.5 15C7.96094 15 8.33333 14.5802 8.33333 14.0889V6.53613C8.33333 6.04395 7.96094 5.625 7.5 5.625Z" fill="white"/>
</svg>
