<svg width="15" height="15" viewBox="0 0 15 15" fill="none" xmlns="http://www.w3.org/2000/svg">
<path d="M2.50978 0C2.81043 0 3.06925 0.239941 3.12677 0.571582L3.16598 0.9375H14.1646C14.6953 0.9375 15.1188 1.53076 14.9698 2.12871L13.558 7.75488C13.4561 8.15918 13.1267 8.4375 12.7528 8.4375H4.4627L4.70322 9.84375H12.7581C13.1058 9.84375 13.3855 10.1572 13.3855 10.5469C13.3855 10.9365 13.1058 11.25 12.7581 11.25H4.15944C3.88232 11.25 3.6235 11.0098 3.56598 10.6787L1.99057 1.40625H0.627445C0.281043 1.40625 0 1.09131 0 0.703125C0 0.314941 0.281043 0 0.627445 0H2.50978ZM3.34637 13.5938C3.34637 12.8174 3.90846 12.1875 4.60126 12.1875C5.29407 12.1875 5.85615 12.8174 5.85615 13.5938C5.85615 14.3701 5.29407 15 4.60126 15C3.90846 15 3.34637 14.3701 3.34637 13.5938ZM13.3855 13.5938C13.3855 14.3701 12.8234 15 12.1306 15C11.4378 15 10.8757 14.3701 10.8757 13.5938C10.8757 12.8174 11.4378 12.1875 12.1306 12.1875C12.8234 12.1875 13.3855 12.8174 13.3855 13.5938Z" fill="white"/>
</svg>
