<svg width="15" height="8" viewBox="0 0 15 8" fill="none" xmlns="http://www.w3.org/2000/svg">
<path d="M1.21492 6.77245C1.30986 6.77245 1.41084 6.7711 1.51792 6.76968C1.63974 6.76803 1.76574 6.76634 1.90093 6.76634C2.11771 6.76634 2.29923 6.77116 2.47246 6.78153C3.36762 6.83291 10.2431 7.04378 11.6359 7.04378C12.3429 7.04378 13.1245 6.85461 13.7265 6.53771C14.4193 6.17309 14.8008 5.68253 14.8008 5.15638C14.8008 4.39326 13.9301 4.14683 13.0084 3.88586C12.5058 3.74361 11.9861 3.5965 11.547 3.3611C11.3492 3.25484 11.0476 3.10083 10.6801 2.91677C10.6807 2.90614 10.6817 2.89557 10.6817 2.8848C10.6817 2.57061 10.4261 2.31503 10.1119 2.31503C9.97087 2.31503 9.84192 2.3668 9.74233 2.452C9.60923 2.38655 9.47275 2.31958 9.33393 2.25159C9.32152 1.94833 9.07161 1.70526 8.76534 1.70526C8.64165 1.70526 8.52736 1.74532 8.43388 1.81255C8.30939 1.75202 8.18471 1.69146 8.06038 1.63113C8.06302 1.60894 8.06477 1.58649 8.06477 1.56361C8.06477 1.24944 7.80919 0.993863 7.49503 0.993863C7.33736 0.993863 7.19451 1.05829 7.09125 1.1621C5.87678 0.575653 4.8811 0.0993269 4.79188 0.0566639C4.73752 0.0195815 4.67693 0 4.61611 0C4.51803 0 4.42376 0.0476823 4.36383 0.127725L3.69297 1.02735C3.60309 1.14909 3.56779 1.2718 3.58803 1.39216C3.62812 1.63064 3.87413 1.79957 4.07179 1.93529C4.15048 1.98934 4.2675 2.06968 4.28629 2.10868C4.28603 2.10895 4.28573 2.10924 4.28547 2.10951C4.17614 2.21639 3.82522 2.37549 3.30646 2.37549C3.0066 2.37549 2.69063 2.3182 2.39268 2.20972C2.02809 2.07698 1.87745 1.71276 1.75643 1.4201C1.65522 1.17531 1.56778 0.963946 1.37352 0.963946C1.22615 0.963946 1.05563 1.09616 0.802491 1.40709C-0.0579337 2.50074 -0.0177143 4.17176 0.0116743 5.39188C0.0148113 5.52254 0.0178492 5.64812 0.0195993 5.7673C0.03327 6.70037 0.52363 6.77245 1.21492 6.77245ZM8.42645 3.38223C8.42645 3.38223 8.53681 3.273 8.67322 3.31384C8.79193 3.34937 9.07264 3.42499 9.24438 3.46766C9.39122 3.50414 9.25864 3.61958 9.25864 3.61958L7.02911 5.66031C7.02732 5.6616 6.93665 5.74431 6.79905 5.74431C6.57692 5.74431 6.14629 5.74263 5.97082 5.74263C5.82497 5.74263 5.94599 5.61956 5.94599 5.61956C5.94599 5.61956 8.42615 3.38223 8.42645 3.38223ZM6.72885 2.90055C6.72944 2.90003 6.90092 2.73089 7.1074 2.79624C7.21208 2.82936 7.45775 2.89035 7.61443 2.9342C7.74843 2.97168 7.60634 3.10991 7.60628 3.11004L4.84643 5.6122C4.84451 5.61362 4.78068 5.72896 4.56558 5.72896C4.32285 5.72896 3.85966 5.74005 3.67016 5.74005C3.56304 5.74005 3.65827 5.62484 3.65817 5.62491L6.72885 2.90055Z" fill="white"/>
</svg>
