<svg width="15" height="15" viewBox="0 0 15 15" fill="none" xmlns="http://www.w3.org/2000/svg">
<path d="M14.0625 5.26172C14.6074 5.51953 15 6.21386 15 7.03125C15 7.84863 14.6074 8.54296 14.0625 8.80078V13.125C14.0625 13.5029 13.834 13.8457 13.4824 13.9922C13.1338 14.1357 12.7295 14.0566 12.4629 13.7871L11.1826 12.4834C9.77637 11.0771 7.86914 10.3125 5.87988 10.3125H5.625V14.0625C5.625 14.5811 5.20605 15 4.6875 15H2.8125C2.29482 15 1.875 14.5811 1.875 14.0625V10.3125C0.839356 10.3125 0 9.47168 0 8.4375V5.625C0 4.59082 0.839356 3.75 1.875 3.75H5.87988C7.86914 3.75 9.77637 2.95898 11.1826 1.55332L12.4629 0.274596C12.7295 0.00648589 13.1338 -0.0737143 13.4824 0.0713931C13.834 0.216501 14.0625 0.558395 14.0625 0.937497V5.26172ZM5.87988 5.625H5.625V8.4375H5.87988C8.21777 8.4375 10.4648 9.31054 12.1875 10.8779V3.18457C10.4648 4.75195 8.21777 5.625 5.87988 5.625Z" fill="white"/>
</svg>
